<svg width="92" height="50" viewBox="0 0 92 50" fill="none" xmlns="http://www.w3.org/2000/svg">
<path fill-rule="evenodd" clip-rule="evenodd" d="M76.5672 37.5H55.0682C53.0257 37.5 51.3699 39.2489 51.3699 41.4061C51.3699 43.5635 53.0257 45.3125 55.0682 45.3125H76.5672C78.6097 45.3125 80.2654 43.5635 80.2654 41.4061C80.2654 39.2489 78.6097 37.5 76.5672 37.5Z" fill="#FFC004"/>
<path fill-rule="evenodd" clip-rule="evenodd" d="M58.0329 40.2348C58.2131 40.24 58.3523 40.3773 58.3523 40.5567C58.3523 40.6412 58.3162 40.7308 58.2493 40.7996L57.6005 41.5016L58.3162 42.42C58.3728 42.4939 58.3985 42.5625 58.3985 42.6417C58.3985 42.8211 58.2595 42.9688 58.0794 42.9688C57.9764 42.9688 57.894 42.932 57.8373 42.8528L56.967 41.7498C56.895 41.6546 56.8641 41.5754 56.8641 41.4964C56.8641 41.4119 56.9001 41.3326 56.9876 41.2323L57.7961 40.3403C57.858 40.2717 57.9403 40.2296 58.0329 40.2348ZM56.4058 40.2348C56.6066 40.2348 56.7508 40.3878 56.7508 40.5937V42.6047C56.7508 42.8105 56.6015 42.9688 56.4058 42.9688C56.205 42.9688 56.0556 42.8105 56.0556 42.6047V40.5937C56.0556 40.3878 56.205 40.2348 56.4058 40.2348ZM60.0012 40.2344C60.8475 40.2344 61.5223 40.8256 61.5223 41.5963C61.5223 42.3723 60.8475 42.9688 60.0012 42.9688C59.4578 42.9688 59.0691 42.7473 58.8519 42.4357C58.8004 42.3671 58.789 42.3089 58.789 42.2563C58.789 42.0819 58.9318 41.9553 59.1148 41.9553C59.1949 41.9553 59.2636 41.9818 59.3264 42.0397C59.4923 42.1823 59.6638 42.3408 59.9897 42.3408C60.3386 42.3408 60.6187 42.1296 60.7218 41.8392L59.8983 41.8339C59.7382 41.8339 59.618 41.7284 59.618 41.5806C59.618 41.438 59.7382 41.3324 59.8983 41.3324H60.7104C60.6073 41.0579 60.3271 40.8572 59.9897 40.8572C59.6638 40.8572 59.4923 41.0156 59.3264 41.1635C59.2636 41.2216 59.1949 41.2428 59.1148 41.2428C58.9318 41.2428 58.789 41.116 58.789 40.9417C58.789 40.889 58.8004 40.836 58.8519 40.7622C59.0691 40.4559 59.4578 40.2344 60.0012 40.2344ZM65.8579 40.2344C66.0649 40.2344 66.2081 40.3911 66.2081 40.6018V42.5959C66.2081 42.812 66.0542 42.9688 65.8472 42.9688H62.6694C62.4572 42.9688 62.3033 42.812 62.3033 42.5959V40.6018C62.3033 40.3911 62.4572 40.2344 62.6641 40.2344C62.8657 40.2344 63.0143 40.3911 63.0143 40.6018V42.3527H63.9003V40.6018C63.9003 40.3911 64.0541 40.2344 64.2611 40.2344C64.4626 40.2344 64.6111 40.3911 64.6111 40.6018V42.3527H65.4972V40.6018C65.4972 40.3911 65.651 40.2344 65.8579 40.2344ZM69.205 38.6719C69.3723 38.6719 69.5082 38.8231 69.5082 39.0085C69.5082 39.1766 69.4037 39.3 69.2206 39.3506L68.7451 39.4852C68.0761 39.6702 67.7678 39.9957 67.726 40.5623C67.9245 40.3323 68.1912 40.2032 68.4996 40.2032C69.1789 40.2032 69.7224 40.8202 69.7224 41.5831C69.7224 42.3742 69.1423 42.9688 68.3635 42.9688C67.5325 42.9688 66.9891 42.3235 66.9891 41.3307V41.0727C66.9891 39.7993 67.4437 39.1486 68.557 38.84L69.0013 38.7167C69.1214 38.683 69.158 38.6719 69.205 38.6719ZM71.3251 40.2344C72.1714 40.2344 72.8463 40.8256 72.8463 41.5963C72.8463 42.3723 72.1714 42.9688 71.3251 42.9688C70.7817 42.9688 70.393 42.7473 70.1758 42.4357C70.1243 42.3671 70.1129 42.3089 70.1129 42.2563C70.1129 42.0819 70.2557 41.9553 70.4387 41.9553C70.5188 41.9553 70.5875 41.9818 70.6503 42.0397C70.8163 42.1823 70.9878 42.3408 71.3136 42.3408C71.6625 42.3408 71.9427 42.1296 72.0457 41.8392L71.2222 41.8339C71.0621 41.8339 70.942 41.7284 70.942 41.5806C70.942 41.438 71.0621 41.3324 71.2222 41.3324H72.0343C71.9313 41.0579 71.651 40.8572 71.3136 40.8572C70.9878 40.8572 70.8163 41.0156 70.6503 41.1635C70.5875 41.2216 70.5188 41.2428 70.4387 41.2428C70.2557 41.2428 70.1129 41.116 70.1129 40.9417C70.1129 40.889 70.1243 40.836 70.1758 40.7622C70.393 40.4559 70.7817 40.2344 71.3251 40.2344ZM75.6045 40.2348C75.7847 40.24 75.9238 40.3773 75.9238 40.5567C75.9238 40.6412 75.8877 40.7308 75.8208 40.7996L75.172 41.5016L75.8877 42.42C75.9443 42.4939 75.9701 42.5625 75.9701 42.6417C75.9701 42.8211 75.8311 42.9688 75.6509 42.9688C75.548 42.9688 75.4655 42.932 75.4089 42.8528L74.5387 41.7498C74.4665 41.6546 74.4356 41.5754 74.4356 41.4964C74.4356 41.4119 74.4717 41.3326 74.5593 41.2323L75.3676 40.3403C75.4295 40.2717 75.5119 40.2296 75.6045 40.2348ZM73.9774 40.2348C74.1782 40.2348 74.3223 40.3878 74.3223 40.5937V42.6047C74.3223 42.8105 74.173 42.9688 73.9774 42.9688C73.7766 42.9688 73.6272 42.8105 73.6272 42.6047V40.5937C73.6272 40.3878 73.7766 40.2348 73.9774 40.2348ZM68.3531 40.8933C67.9924 40.8933 67.7103 41.1961 67.7103 41.5831C67.7103 41.9703 67.9978 42.2787 68.3531 42.2787C68.7188 42.2787 69.0013 41.9703 69.0013 41.5831C69.0013 41.1961 68.7188 40.8933 68.3531 40.8933Z" fill="#001D38"/>
<path fill-rule="evenodd" clip-rule="evenodd" d="M0.54786 0.0634766C2.24006 0.210344 5.34749 0.815958 6.09918 1.57215C5.86538 2.1917 5.45755 16.8622 8.68193 20.3359L8.78084 20.4643C8.87804 20.5828 8.98953 20.6988 9.11357 20.8107C9.39173 20.9776 9.74375 20.9732 10.0194 20.7907C14.7501 17.659 15.1401 5.4846 14.9488 3.49757C17.6479 3.2894 19.6725 3.92606 20.3651 4.33747C20.4755 4.40308 20.5079 4.44658 20.5238 4.50746C20.5346 4.54865 20.5456 4.59115 20.5569 4.63475C21.1338 6.86863 22.5678 13.6136 23.3524 17.7691C27.2437 14.3464 27.5574 13.8089 31.9837 11.3171C35.2485 9.47895 38.6585 9.26717 41.8701 9.82446C46.0093 10.5426 49.4982 12.9534 50.2634 17.1069C50.7336 19.6603 51.9675 27.6438 46.1162 30.4933C42.9752 32.023 40.2491 31.3566 39.1848 30.8162C39.7993 35.4686 40.2199 40.9372 40.7439 48.5352C37.9161 48.5526 37.9015 48.5922 34.916 48.2302C34.7675 39.7644 33.9077 30.0796 32.2418 19.7926C33.4302 18.7074 35.433 17.1305 36.9112 16.4042C37.2014 17.9672 38.6584 27.1495 38.7489 27.3915C41.535 28.1302 42.6459 27.3431 43.6238 25.9783C44.8294 24.2954 46.0366 18.6892 43.6457 14.4598C42.486 12.4081 40.3664 12.7908 38.7318 13.3744C38.093 13.6024 37.4684 13.8893 36.8672 14.2056C29.5541 18.0522 21.9229 26.8697 19.1181 30.4596C13.3043 37.9009 13.406 42.0068 13.8083 44.3191C14.0458 45.6837 14.7302 46.5962 15.9217 46.4296C18.0442 46.1328 21.4672 43.5292 20.1953 31.4487C20.1949 31.4442 20.1963 31.4394 20.1992 31.4356C22.2486 28.8422 23.2638 27.8637 24.8462 26.1543C26.3088 35.2331 27.3069 44.0933 21.6165 48.1997C18.7989 50.2331 15.4976 50.78 11.5022 48.4831C7.98847 46.463 5.52485 39.5382 12.6184 29.8847C14.7248 27.0182 16.6872 24.629 18.6154 22.5936C18.0225 19.6438 18.0107 19.3318 17.3914 16.4451C17.0944 17.7384 16.5366 19.1377 15.8034 20.3648C14.1611 22.24 11.8537 22.2322 10.1998 21.524C11.8541 22.3134 14.2656 22.3981 15.9629 20.4536C14.9608 22.1365 13.6183 23.4491 12.1826 23.8016C6.80538 25.1222 -2.32961 20.4819 0.54786 0.0634766ZM55.7786 13.6106C58.7126 9.50848 62.8568 8.87666 66.4647 9.68171C68.4858 10.1325 70.3735 11.3142 71.0796 12.1513C73.2959 14.7785 71.5682 18.0891 67.7034 17.4257C67.5442 17.3824 67.356 17.3852 67.3769 17.2212C67.5162 16.1257 67.7459 12.2958 65.0084 12.7499C59.9878 13.5832 57.054 21.5934 59.1806 26.5354C60.4013 29.3723 62.1094 28.6005 63.8567 26.9937C65.5086 25.4747 66.838 22.827 67.9345 19.315C67.964 19.2203 68.0139 19.1886 68.1244 19.1989C69.5355 19.3299 70.7426 19.5167 71.8897 19.9449C71.9498 19.9674 72.0063 20.0194 72.0108 20.084C72.0108 20.084 71.6916 22.7499 70.4619 25.4331C71.7603 22.7032 72.0915 19.9048 72.0915 19.9048C72.2555 22.2932 72.4897 24.9497 73.7171 26.0925C73.8724 26.2372 74.0882 26.3104 74.264 26.2085C75.5803 25.4451 75.858 23.7576 76.0793 22.8064C76.1171 22.6446 76.1869 22.6595 76.3639 22.6806C77.6167 22.8291 79.449 23.1602 80.6449 23.4185C80.8346 23.4596 80.8486 23.53 80.8097 23.7009C79.4783 29.5461 76.5606 30.6968 73.3609 29.7686C71.661 29.2755 70.5281 28.1064 69.7707 26.7146L69.784 26.7384C69.736 26.8204 69.6871 26.9021 69.6368 26.983C69.6322 26.9748 69.6281 26.9661 69.6236 26.9578C67.3126 30.4939 63.3594 32.1205 59.711 31.3857C56.2029 30.6793 53.5533 28.4198 53.095 23.8631C52.7062 19.9977 53.4233 16.9035 55.7786 13.6106ZM83.1296 24.0409C84.0208 24.1314 87.2085 24.8096 87.9435 24.9581C88.0099 24.9715 88.0582 25.0329 88.0618 25.1086C88.1059 25.9974 87.9824 29.0445 87.9353 29.9169C87.9307 30.0009 87.8634 30.061 87.7887 30.0547C84.9493 29.8193 83.087 29.2829 82.8349 28.692C82.5744 28.0823 82.8911 24.5412 82.9516 24.191C82.9683 24.0949 83.0424 24.0322 83.1296 24.0409ZM86.3013 3.02222C88.0225 2.95273 89.9023 3.12935 91.2572 3.66893C91.413 3.731 91.4957 3.81561 91.4318 4.05781C90.8216 6.37029 88.8199 15.1711 88.2674 22.6234C88.2584 22.7442 88.1593 22.833 88.0482 22.8241C86.6743 22.7136 86.0177 22.6048 84.5017 22.2338C84.0126 22.1142 83.5077 21.6606 83.5743 20.624C83.7568 17.7877 84.4079 10.5728 85.7576 3.53766C85.8419 3.09751 85.9386 3.03694 86.3013 3.02222Z" fill="#0041C4"/>
<path fill-rule="evenodd" clip-rule="evenodd" d="M68.7995 26.572C68.9435 27.1154 69.0953 27.6379 69.257 28.125C69.1454 27.7452 69.0422 27.3371 68.9483 26.8932C68.9108 26.716 68.8713 26.5163 68.7995 26.572Z" fill="#FFB000"/>
</svg>
