<svg width="128" height="70" viewBox="0 0 128 70" fill="none" xmlns="http://www.w3.org/2000/svg">
<path fill-rule="evenodd" clip-rule="evenodd" d="M106.528 52.5H76.6166C73.7749 52.5 71.4711 54.9484 71.4711 57.9686C71.4711 60.9889 73.7749 63.4375 76.6166 63.4375H106.528C109.37 63.4375 111.674 60.9889 111.674 57.9686C111.674 54.9484 109.37 52.5 106.528 52.5Z" fill="#FFC004"/>
<path fill-rule="evenodd" clip-rule="evenodd" d="M80.7416 56.3287C80.9923 56.336 81.1859 56.5283 81.1859 56.7794C81.1859 56.8976 81.1356 57.0231 81.0425 57.1194L80.1399 58.1023L81.1356 59.3879C81.2144 59.4915 81.2501 59.5875 81.2501 59.6984C81.2501 59.9495 81.0568 60.1562 80.8062 60.1562C80.6629 60.1562 80.5482 60.1048 80.4694 59.9939L79.2585 58.4497C79.1584 58.3164 79.1153 58.2055 79.1153 58.0949C79.1153 57.9767 79.1654 57.8656 79.2872 57.7252L80.412 56.4765C80.4981 56.3804 80.6126 56.3214 80.7416 56.3287ZM78.4776 56.3287C78.7571 56.3287 78.9577 56.5429 78.9577 56.8312V59.6465C78.9577 59.9347 78.7499 60.1562 78.4776 60.1562C78.1984 60.1562 77.9905 59.9347 77.9905 59.6465V56.8312C77.9905 56.5429 78.1984 56.3287 78.4776 56.3287ZM83.48 56.3281C84.6574 56.3281 85.5964 57.1559 85.5964 58.2348C85.5964 59.3213 84.6574 60.1562 83.48 60.1562C82.724 60.1562 82.1832 59.8462 81.8809 59.4099C81.8093 59.3139 81.7934 59.2325 81.7934 59.1588C81.7934 58.9146 81.9921 58.7374 82.2467 58.7374C82.3582 58.7374 82.4538 58.7745 82.5412 58.8556C82.772 59.0553 83.0106 59.2771 83.464 59.2771C83.9494 59.2771 84.3392 58.9815 84.4825 58.5748L83.3368 58.5675C83.114 58.5675 82.9469 58.4197 82.9469 58.2128C82.9469 58.0132 83.114 57.8653 83.3368 57.8653H84.4666C84.3233 57.4811 83.9334 57.2001 83.464 57.2001C83.0106 57.2001 82.772 57.4219 82.5412 57.6289C82.4538 57.7102 82.3582 57.7399 82.2467 57.7399C81.9921 57.7399 81.7934 57.5624 81.7934 57.3183C81.7934 57.2445 81.8093 57.1705 81.8809 57.0671C82.1832 56.6383 82.724 56.3281 83.48 56.3281ZM91.6285 56.3281C91.9165 56.3281 92.1157 56.5475 92.1157 56.8426V59.6343C92.1157 59.9369 91.9015 60.1562 91.6136 60.1562H87.1923C86.8971 60.1562 86.6829 59.9369 86.6829 59.6343V56.8426C86.6829 56.5475 86.8971 56.3281 87.185 56.3281C87.4653 56.3281 87.6722 56.5475 87.6722 56.8426V59.2938H88.9049V56.8426C88.9049 56.5475 89.1188 56.3281 89.4068 56.3281C89.6872 56.3281 89.8937 56.5475 89.8937 56.8426V59.2938H91.1266V56.8426C91.1266 56.5475 91.3406 56.3281 91.6285 56.3281ZM96.2854 54.1406C96.5181 54.1406 96.7071 54.3524 96.7071 54.6119C96.7071 54.8473 96.5617 55.0201 96.307 55.0908L95.6454 55.2792C94.7146 55.5383 94.2856 55.994 94.2275 56.7872C94.5037 56.4653 94.8747 56.2845 95.3038 56.2845C96.249 56.2845 97.0052 57.1483 97.0052 58.2163C97.0052 59.3239 96.1981 60.1562 95.1146 60.1562C93.9583 60.1562 93.2022 59.2529 93.2022 57.8629V57.5018C93.2022 55.719 93.8348 54.808 95.3837 54.376L96.0019 54.2034C96.169 54.1561 96.2199 54.1406 96.2854 54.1406ZM99.235 56.3281C100.412 56.3281 101.351 57.1559 101.351 58.2348C101.351 59.3213 100.412 60.1562 99.235 60.1562C98.479 60.1562 97.9382 59.8462 97.636 59.4099C97.5643 59.3139 97.5484 59.2325 97.5484 59.1588C97.5484 58.9146 97.7471 58.7374 98.0018 58.7374C98.1132 58.7374 98.2088 58.7745 98.2962 58.8556C98.527 59.0553 98.7657 59.2771 99.219 59.2771C99.7045 59.2771 100.094 58.9815 100.238 58.5748L99.0918 58.5675C98.8691 58.5675 98.7019 58.4197 98.7019 58.2128C98.7019 58.0132 98.8691 57.8653 99.0918 57.8653H100.222C100.078 57.4811 99.6885 57.2001 99.219 57.2001C98.7657 57.2001 98.527 57.4219 98.2962 57.6289C98.2088 57.7102 98.1132 57.7399 98.0018 57.7399C97.7471 57.7399 97.5484 57.5624 97.5484 57.3183C97.5484 57.2445 97.5643 57.1705 97.636 57.0671C97.9382 56.6383 98.479 56.3281 99.235 56.3281ZM105.189 56.3287C105.44 56.336 105.633 56.5283 105.633 56.7794C105.633 56.8976 105.583 57.0231 105.49 57.1194L104.587 58.1023L105.583 59.3879C105.662 59.4915 105.698 59.5875 105.698 59.6984C105.698 59.9495 105.504 60.1562 105.254 60.1562C105.11 60.1562 104.996 60.1048 104.917 59.9939L103.706 58.4497C103.606 58.3164 103.563 58.2055 103.563 58.0949C103.563 57.9767 103.613 57.8656 103.735 57.7252L104.859 56.4765C104.945 56.3804 105.06 56.3214 105.189 56.3287ZM102.925 56.3287C103.204 56.3287 103.405 56.5429 103.405 56.8312V59.6465C103.405 59.9347 103.197 60.1562 102.925 60.1562C102.646 60.1562 102.438 59.9347 102.438 59.6465V56.8312C102.438 56.5429 102.646 56.3287 102.925 56.3287ZM95.1001 57.2506C94.5982 57.2506 94.2056 57.6745 94.2056 58.2163C94.2056 58.7585 94.6058 59.1901 95.1001 59.1901C95.6089 59.1901 96.0019 58.7585 96.0019 58.2163C96.0019 57.6745 95.6089 57.2506 95.1001 57.2506Z" fill="#001D38"/>
<path fill-rule="evenodd" clip-rule="evenodd" d="M0.76224 0.0884552C3.11661 0.294069 7.43998 1.14193 8.48582 2.2006C8.16052 3.06796 7.59312 23.6066 12.0792 28.4698L12.2168 28.6496C12.3521 28.8155 12.5072 28.9779 12.6797 29.1346C13.0668 29.3683 13.5565 29.3621 13.94 29.1066C20.5219 24.7223 21.0644 7.67803 20.7983 4.89619C24.5536 4.60475 27.3704 5.49607 28.334 6.07205C28.4876 6.16389 28.5327 6.2248 28.5548 6.31003C28.5698 6.3677 28.5852 6.4272 28.6009 6.48824C29.4036 9.61567 31.3987 19.0586 32.4904 24.8763C37.9042 20.0845 38.3408 19.332 44.499 15.8435C49.0415 13.2701 53.7858 12.9736 58.254 13.7538C64.013 14.7592 68.8671 18.1343 69.9316 23.9492C70.5859 27.5241 72.3027 38.701 64.1616 42.6902C59.7916 44.8317 55.9987 43.8988 54.518 43.1422C55.373 49.6556 55.9582 57.3116 56.6871 67.9488C52.7528 67.9732 52.7326 68.0287 48.5788 67.5218C48.3722 55.6698 47.1759 42.1111 44.8582 27.7092C46.5116 26.19 49.2981 23.9823 51.3548 22.9655C51.7585 25.1536 53.7856 38.0089 53.9115 38.3476C57.7878 39.3819 59.3335 38.28 60.694 36.3692C62.3714 34.0131 64.0509 26.1645 60.7245 20.2433C59.111 17.3709 56.1619 17.9068 53.8877 18.7238C52.999 19.043 52.1299 19.4447 51.2935 19.8874C41.1188 25.2726 30.5015 37.6172 26.5991 42.643C18.5103 53.0608 18.6519 58.8092 19.2115 62.0463C19.542 63.9568 20.4941 65.2342 22.152 65.001C25.105 64.5855 29.8674 60.9405 28.0978 44.0278C28.0972 44.0214 28.0992 44.0147 28.1032 44.0095C30.9546 40.3787 32.367 39.0087 34.5686 36.6156C36.6036 49.3259 37.9923 61.7303 30.0751 67.4792C26.155 70.3259 21.5618 71.0916 16.0031 67.876C11.1144 65.0479 7.68674 55.353 17.5561 41.8382C20.4866 37.8251 23.217 34.4802 25.8996 31.6306C25.0748 27.5009 25.0584 27.0641 24.1967 23.0227C23.7835 24.8334 23.0074 26.7924 21.9873 28.5103C19.7023 31.1356 16.4921 31.1247 14.1911 30.1332C16.4927 31.2384 19.8478 31.3569 22.2092 28.6346C20.8151 30.9906 18.9472 32.8284 16.9497 33.3219C9.46835 35.1707 -3.24119 28.6743 0.76224 0.0884552ZM77.6049 19.0544C81.6871 13.3115 87.4529 12.4269 92.4726 13.554C95.2846 14.1851 97.9109 15.8394 98.8934 17.0115C101.977 20.6895 99.5732 25.3244 94.196 24.3956C93.9746 24.335 93.7128 24.3389 93.7417 24.1093C93.9356 22.5755 94.2551 17.2136 90.4464 17.8495C83.4612 19.0161 79.3795 30.2303 82.3383 37.1492C84.0366 41.1208 86.413 40.0403 88.844 37.7908C91.1424 35.6641 92.992 31.9574 94.5175 27.0405C94.5586 26.908 94.628 26.8636 94.7817 26.878C96.7451 27.0615 98.4245 27.323 100.02 27.9224C100.104 27.954 100.183 28.0267 100.189 28.1172C100.189 28.1172 99.7449 31.8494 98.034 35.606C99.8405 31.784 100.301 27.8663 100.301 27.8663C100.529 31.2101 100.855 34.9291 102.563 36.529C102.779 36.7316 103.079 36.8342 103.324 36.6915C105.155 35.6227 105.542 33.2602 105.849 31.9286C105.902 31.702 105.999 31.7229 106.245 31.7524C107.988 31.9604 110.538 32.4239 112.202 32.7856C112.466 32.843 112.485 32.9416 112.431 33.1808C110.579 41.3641 106.519 42.9751 102.067 41.6757C99.7022 40.9853 98.126 39.3485 97.0722 37.4001L97.0908 37.4333C97.024 37.5482 96.956 37.6625 96.886 37.7758C96.8796 37.7643 96.8739 37.7521 96.8675 37.7405C93.6524 42.691 88.1522 44.9682 83.0761 43.9396C78.1953 42.9506 74.509 39.7873 73.8713 33.4079C73.3303 27.9964 74.3281 23.6645 77.6049 19.0544ZM115.659 33.6569C116.899 33.7835 121.334 34.733 122.356 34.9409C122.449 34.9597 122.516 35.0456 122.521 35.1516C122.582 36.396 122.41 40.6618 122.345 41.8833C122.338 42.0009 122.245 42.0849 122.141 42.0762C118.19 41.7466 115.599 40.9957 115.249 40.1684C114.886 39.3148 115.327 34.3573 115.411 33.867C115.434 33.7324 115.537 33.6446 115.659 33.6569ZM120.071 4.2307C122.466 4.13341 125.081 4.38068 126.967 5.13608C127.183 5.22299 127.298 5.34144 127.209 5.68052C126.36 8.91799 123.575 21.2391 122.807 31.6724C122.794 31.8414 122.656 31.9658 122.502 31.9533C120.59 31.7987 119.677 31.6463 117.568 31.127C116.887 30.9595 116.185 30.3245 116.277 28.8732C116.531 24.9024 117.437 14.8015 119.315 4.95231C119.432 4.33611 119.567 4.2513 120.071 4.2307Z" fill="white"/>
<path fill-rule="evenodd" clip-rule="evenodd" d="M95.721 37.2008C95.9214 37.9616 96.1325 38.693 96.3576 39.375C96.2023 38.8433 96.0586 38.272 95.928 37.6505C95.8758 37.4025 95.8209 37.1229 95.721 37.2008Z" fill="#FFB000"/>
</svg>
